<svg width="46" height="47" viewBox="0 0 46 47" fill="none" xmlns="http://www.w3.org/2000/svg">
<path d="M23 27.2904C27.2282 27.2904 30.6667 23.8519 30.6667 19.6237C30.6667 15.3955 27.2282 11.957 23 11.957C18.7718 11.957 15.3333 15.3955 15.3333 19.6237C15.3333 23.8519 18.7718 27.2904 23 27.2904ZM23 15.7904C25.1141 15.7904 26.8333 17.5096 26.8333 19.6237C26.8333 21.7378 25.1141 23.457 23 23.457C20.8859 23.457 19.1667 21.7378 19.1667 19.6237C19.1667 17.5096 20.8859 15.7904 23 15.7904Z" fill="white"/>
<path d="M21.8884 42.2669C22.2128 42.4985 22.6014 42.6231 23.0001 42.6231C23.3987 42.6231 23.7873 42.4985 24.1117 42.2669C24.6944 41.8548 38.389 31.9667 38.3334 19.6234C38.3334 11.169 31.4545 4.29004 23.0001 4.29004C14.5457 4.29004 7.66673 11.169 7.66673 19.6138C7.61115 31.9667 21.3057 41.8548 21.8884 42.2669ZM23.0001 8.12337C29.3423 8.12337 34.5001 13.2811 34.5001 19.633C34.5403 28.1391 26.0897 35.777 23.0001 38.2821C19.9123 35.7751 11.4598 28.1353 11.5001 19.6234C11.5001 13.2811 16.6578 8.12337 23.0001 8.12337Z" fill="white"/>
</svg>
