<svg width="42" height="42" viewBox="0 0 42 42" fill="none" xmlns="http://www.w3.org/2000/svg">
<path d="M36.2103 4.93945H6.7512C6.04274 4.93945 5.47037 5.51182 5.47037 6.22028V35.6794C5.47037 36.3879 6.04274 36.9602 6.7512 36.9602H36.2103C36.9188 36.9602 37.4911 36.3879 37.4911 35.6794V6.22028C37.4911 5.51182 36.9188 4.93945 36.2103 4.93945ZM32.5119 14.2855H29.9543C27.949 14.2855 27.5607 15.2381 27.5607 16.639V19.725H32.3478L31.7234 24.5562H27.5607V36.9602H22.5695V24.5602H18.3948V19.725H22.5695V16.1627C22.5695 12.0281 25.0951 9.77459 28.7855 9.77459C30.5546 9.77459 32.0716 9.90668 32.5159 9.96672V14.2855H32.5119Z" fill="white"/>
</svg>
