<svg width="42" height="42" viewBox="0 0 42 42" fill="none" xmlns="http://www.w3.org/2000/svg">
<path d="M36.1981 4.93945H6.73899C6.03053 4.93945 5.45816 5.51182 5.45816 6.22028V35.6794C5.45816 36.3879 6.03053 36.9602 6.73899 36.9602H36.1981C36.9066 36.9602 37.4789 36.3879 37.4789 35.6794V6.22028C37.4789 5.51182 36.9066 4.93945 36.1981 4.93945ZM14.9563 32.2252H10.2052V16.9432H14.9563V32.2252ZM12.5828 14.8539C12.0381 14.8539 11.5057 14.6924 11.0529 14.3898C10.6 14.0872 10.247 13.6571 10.0386 13.1539C9.83019 12.6507 9.77565 12.097 9.88191 11.5629C9.98817 11.0287 10.2504 10.538 10.6356 10.1529C11.0207 9.76775 11.5114 9.50548 12.0455 9.39923C12.5797 9.29297 13.1334 9.3475 13.6366 9.55593C14.1398 9.76436 14.5699 10.1173 14.8725 10.5702C15.1751 11.023 15.3366 11.5555 15.3366 12.1001C15.3326 13.6211 14.0998 14.8539 12.5828 14.8539ZM32.7439 32.2252H27.9968V24.7923C27.9968 23.0192 27.9648 20.7417 25.5272 20.7417C23.0576 20.7417 22.6773 22.671 22.6773 24.6643V32.2252H17.9343V16.9432H22.4892V19.0326H22.5533C23.1857 17.8318 24.7347 16.563 27.0482 16.563C31.8593 16.563 32.7439 19.729 32.7439 23.8437V32.2252Z" fill="white"/>
</svg>
