<svg width="41" height="42" viewBox="0 0 41 42" fill="none" xmlns="http://www.w3.org/2000/svg">
<path d="M37.1449 10.636C35.9201 11.1643 34.5873 11.5446 33.2144 11.6927C34.6398 10.8459 35.7072 9.50804 36.2163 7.93022C34.8788 8.72589 33.4135 9.28383 31.8855 9.57929C31.2469 8.89655 30.4745 8.35265 29.6165 7.98148C28.7584 7.61031 27.8332 7.41983 26.8983 7.42189C23.1158 7.42189 20.0739 10.4879 20.0739 14.2503C20.0739 14.7787 20.1379 15.307 20.242 15.8153C14.5783 15.5191 9.52702 12.8134 6.16884 8.6707C5.55694 9.71584 5.23629 10.9059 5.24023 12.1169C5.24023 14.4865 6.44502 16.5758 8.28221 17.8046C7.19952 17.762 6.14219 17.4644 5.19621 16.9361V17.0201C5.19621 20.3383 7.54173 23.0881 10.6678 23.7205C10.0808 23.8729 9.47701 23.9509 8.87059 23.9526C8.4263 23.9526 8.00603 23.9086 7.58175 23.8486C8.44631 26.5543 10.9639 28.5196 13.9619 28.5836C11.6164 30.4208 8.67846 31.5015 5.48839 31.5015C4.91602 31.5015 4.38768 31.4815 3.83932 31.4175C6.86529 33.3587 10.4556 34.4794 14.3221 34.4794C26.8743 34.4794 33.7427 24.0807 33.7427 15.0548C33.7427 14.7587 33.7427 14.4625 33.7227 14.1663C35.0516 13.1936 36.2163 11.9889 37.1449 10.636Z" fill="white"/>
</svg>
